<svg xmlns="http://www.w3.org/2000/svg" xmlns:xlink="http://www.w3.org/1999/xlink" xmlns:inkscape="http://www.inkscape.org/namespaces/inkscape" version="1.1" width="483.19" height="42.0449" viewBox="0 0 483.19 42.0449">
<defs>
<clipPath id="clip_1">
<path transform="matrix(1,0,0,-1,.00012,1791.8908)" d="M0 1749.8468H483.19V1791.8917H0Z"/>
</clipPath>
<clipPath id="clip_2">
<path transform="matrix(1,0,0,-1,.00012,1791.8908)" d="M0 0H483.19V1793.28H0Z"/>
</clipPath>
<path id="font_3_6" d="M.22399903 .43138124C.22399903 .43237306 .22399903 .4423828 .21099854 .4423828 .18798828 .4423828 .114990238 .43437196 .08898926 .43237306 .08099365 .43138124 .069992069 .43037416 .069992069 .41236878 .069992069 .40037538 .07899475 .40037538 .09399414 .40037538 .14199829 .40037538 .14399719 .39337159 .14399719 .38336183 .14399719 .37635804 .13198853 .32929994 .125 .3022766L.06399536 .057022096C.05999756 .042007448 .052993776 .01399231 .052993776 .011993408 .052993776 .0009918213 .06298828 0 .068984989 0H.08299255C.15299988 .011993408 .2619934 .05102539 .36499024 .14712525 .49699403 .2702484 .5239868 .40637208 .5239868 .41537477 .5239868 .43237306 .5119934 .4423828 .49499513 .4423828 .4869995 .4423828 .46398927 .43836976 .45599366 .40937806 .3919983 .18215943 .23999024 .07003784 .12599182 .03300476L.22399903 .43138124Z"/>
<path id="font_4_18" d="M.68699648 .32714845C.70199587 .32714845 .72099307 .32714845 .72099307 .34713746 .72099307 .36714173 .70199587 .36714173 .6879883 .36714173H.08898926C.07499695 .36714173 .055999757 .36714173 .055999757 .34713746 .055999757 .32714845 .07499695 .32714845 .08999634 .32714845H.68699648M.6879883 .13284302C.70199587 .13284302 .72099307 .13284302 .72099307 .15284729 .72099307 .17285156 .70199587 .17285156 .68699648 .17285156H.08999634C.07499695 .17285156 .055999757 .17285156 .055999757 .15284729 .055999757 .13284302 .07499695 .13284302 .08898926 .13284302H.6879883Z"/>
<path id="font_5_3" d="M.45098878-1.8269959C.45098878-1.7169952 .375-1.5479889 .20098877-1.4599915 .30899049-1.4019928 .43798829-1.2849884 .44999696-1.097992L.45098878-1.0919952V-.39898683C.45098878-.31698609 .45098878-.2989807 .45899964-.26098634 .47698976-.1809845 .5249939-.08198547 .6519928-.0069885256 .6599884-.0019836426 .6609955-.0009918213 .6609955 .01701355 .6609955 .039031984 .6599884 .040039064 .6380005 .040039064 .6199951 .040039064 .6179962 .040039064 .59098818 .024032593 .36698915-.10298157 .35398866-.2889862 .35398866-.32398988V-1.0349884C.35398866-1.1069946 .35398866-1.1879883 .3019867-1.2799835 .2559967-1.3619843 .20199585-1.4029846 .15899658-1.4319916 .14498902-1.4409943 .14399719-1.4419861 .14399719-1.4589844 .14399719-1.4769898 .14498902-1.4779816 .15299988-1.4829865 .23799134-1.5389862 .32899476-1.6279907 .35099793-1.7909851 .35398866-1.8129883 .35398866-1.8149872 .35398866-1.8269959V-2.594986C.35398866-2.6759949 .4039917-2.8439942 .5970001-2.9459992 .6199951-2.9589844 .621994-2.9589844 .6380005-2.9589844 .6599884-2.9589844 .6609955-2.9579926 .6609955-2.9359894 .6609955-2.9179993 .6599884-2.9169923 .6559906-2.9149934 .61299136-2.8879853 .48199464-2.8089905 .45498658-2.6349946 .45098878-2.6089936 .45098878-2.6069947 .45098878-2.5939942V-1.8269959Z"/>
<path id="font_3_36" d="M.08799744 .059265138C.084991458 .044265748 .07899475 .021255494 .07899475 .01625061 .07899475-.0017547608 .09298706-.0107421879 .10798645-.0107421879 .11999512-.0107421879 .13798523-.002746582 .14498902 .01725769 .1459961 .019256592 .1579895 .06626892 .1639862 .091278079L.18598938 .18130493C.19198609 .2033081 .19799805 .22531128 .20298767 .24832154 .20698548 .26531983 .21499634 .29434205 .21598816 .29833985 .23098755 .3293457 .28399659 .42037965 .3789978 .42037965 .42399598 .42037965 .43299867 .38336183 .43299867 .35035707 .43299867 .28833009 .38398744 .16029358 .36799623 .11727905 .35899354 .0942688 .35798646 .08227539 .35798646 .0712738 .35798646 .024261475 .3929901-.0107421879 .43998719-.0107421879 .5339966-.0107421879 .57099917 .13528443 .57099917 .14329529 .57099917 .1532898 .56199648 .1532898 .5589905 .1532898 .548996 .1532898 .548996 .15029907 .5439911 .13528443 .5239868 .06726074 .4909973 .011245728 .44198609 .011245728 .4249878 .011245728 .41799928 .021255494 .41799928 .044265748 .41799928 .0692749 .4269867 .09327698 .43598939 .11528015 .45498658 .16830445 .49699403 .27833558 .49699403 .3353424 .49699403 .40237428 .45399476 .4423828 .38198854 .4423828 .2919922 .4423828 .24299622 .37835694 .22599793 .35534669 .22099304 .41137696 .17999268 .4423828 .13398743 .4423828 .08799744 .4423828 .068984989 .4033661 .05899048 .38536073 .042999269 .35134889 .0289917 .29232789 .0289917 .28833009 .0289917 .27833558 .038986207 .27833558 .040985109 .27833558 .050994874 .27833558 .051986696 .2793274 .057998659 .30133058 .07499695 .37236024 .09498596 .42037965 .1309967 .42037965 .15098572 .42037965 .1619873 .4073639 .1619873 .37435914 .1619873 .35334779 .15899658 .3423462 .1459961 .29032899L.08799744 .059265138Z"/>
<path id="font_6_16" d="M.43998719 .22851563C.46099855 .22851563 .46798707 .22851563 .46798707 .25050355 .46798707 .33839417 .4189911 .44628907 .269989 .44628907 .13899231 .44628907 .038986207 .34239198 .038986207 .21949768 .038986207 .092315677 .1499939-.009765625 .2829895-.009765625 .41799928-.009765625 .46798707 .09832764 .46798707 .12036133 .46798707 .12435913 .46598817 .13438416 .45098878 .13438416 .43798829 .13438416 .43598939 .12837219 .43299867 .11836243 .4019928 .037246705 .32598878 .022232056 .2899933 .022232056 .24299622 .022232056 .19799805 .043258668 .16799927 .08131409 .1309967 .12837219 .12998963 .18945313 .12998963 .22851563H.43998719M.1309967 .25450135C.14199829 .39530946 .23199463 .41827394 .269989 .41827394 .3929901 .41827394 .39698792 .27947999 .397995 .25450135H.1309967Z"/>
<path id="font_6_17" d="M.20599365 .39465333H.33099366V.43066407H.20199585V.54286196C.20199585 .63401797 .2559967 .6760864 .29899598 .6760864 .30799867 .6760864 .31799317 .6740875 .32798768 .67108157 .31399537 .6630707 .30599977 .64704897 .30599977 .63101199 .30599977 .6039734 .32499696 .5849304 .35198976 .5849304 .3789978 .5849304 .397995 .6039734 .397995 .63101199 .397995 .6740875 .35499574 .70410159 .2999878 .70410159 .22099304 .70410159 .1309967 .6480408 .1309967 .54286196V.43066407H.04499817V.39465333H.1309967V.078948978C.1309967 .035995485 .12098694 .035995485 .055999757 .035995485V0C.06098938 0 .1289978 .0039978029 .16999817 .0039978029 .21299744 .0039978029 .25698854 .0019989014 .2999878 0V.035995485H.27999879C.20599365 .035995485 .20599365 .04698181 .20599365 .080947879V.39465333Z"/>
<path id="font_7_1" d="M.6589966 .23046875C.6759949 .23046875 .69400027 .23046875 .69400027 .25045777 .69400027 .27046205 .6759949 .27046205 .6589966 .27046205H.117996219C.100997928 .27046205 .08299255 .27046205 .08299255 .25045777 .08299255 .23046875 .100997928 .23046875 .117996219 .23046875H.6589966Z"/>
<path id="font_4_9" d="M.1269989 .07699585 .23298645 .18003845C.3889923 .31811524 .44898988 .3721466 .44898988 .47216798 .44898988 .5860901 .35899354 .6660156 .23699951 .6660156 .12399292 .6660156 .049987794 .57411196 .049987794 .48516847 .049987794 .4291687 .099990848 .4291687 .102996829 .4291687 .11999512 .4291687 .15499878 .44117738 .15499878 .48217774 .15499878 .5081787 .13699341 .5341797 .101989749 .5341797 .09399414 .5341797 .09199524 .5341797 .08898926 .5331726 .11199951 .59806826 .1659851 .63500979 .22399903 .63500979 .31498719 .63500979 .35798646 .5541382 .35798646 .47216798 .35798646 .39215089 .30799867 .31311036 .25299073 .25108338L.06098938 .036987306C.049987794 .025985718 .049987794 .023986817 .049987794 0H.42099L.44898988 .17404175H.42399598C.4189911 .14402771 .4119873 .1000061 .4019928 .084991458 .394989 .07699585 .32899476 .07699585 .30699159 .07699585H.1269989Z"/>
<path id="font_3_11" d="M.20298767 .0009918213C.20298767 .066986087 .17799378 .10598755 .13899231 .10598755 .10598755 .10598755 .085998538 .08099365 .085998538 .052993776 .085998538 .025985718 .10598755 0 .13899231 0 .15098572 0 .1639862 .0039978029 .17399597 .0129852299 .1769867 .01499939 .17799378 .015991211 .1789856 .015991211 .17999268 .015991211 .18099976 .01499939 .18099976 .0009918213 .18099976-.07316589 .1459961-.13328552 .11299133-.16635132 .101989749-.17736817 .101989749-.17936707 .101989749-.18237305 .101989749-.18936157 .10699463-.19335938 .11199951-.19335938 .12298584-.19335938 .20298767-.116256717 .20298767 .0009918213Z"/>
<path id="font_8_58" d="M.5209961 .21636963C.5209961 .34336854 .42399598 .4423828 .31199647 .4423828 .23399353 .4423828 .19198609 .39837647 .17199707 .3763733V.4423828L.027999878 .43066407V.3996582C.09899902 .3996582 .10598755 .3936615 .10598755 .34973146V-.117996219C.10598755-.16308594 .09498596-.16308594 .027999878-.16308594V-.1940918L.13999939-.19110108 .25299073-.1940918V-.16308594C.18598938-.16308594 .1749878-.16308594 .1749878-.117996219V.050186159 .059173585C.17999268 .04319763 .22200012-.0107421879 .2979889-.0107421879 .4169922-.0107421879 .5209961 .087127689 .5209961 .21594239V.21636963M.43798829 .21594239C.43798829 .09512329 .36799623 .011245728 .2939911 .011245728 .2539978 .011245728 .21598816 .031219483 .18899536 .07215881 .1749878 .09312439 .1749878 .09411621 .1749878 .114089969V.33674623C.20399475 .38838197 .25299073 .41737367 .3039856 .41737367 .3769989 .41737367 .43798829 .32937623 .43798829 .21636963V.21594239Z"/>
<path id="font_8_43" d="M.48298646 .08912659V.14511109H.45799256V.08912659C.45799256 .03112793 .43299867 .025131226 .42199708 .025131226 .3889923 .025131226 .3849945 .070129398 .3849945 .07511902V.27508546C.3849945 .31707765 .3849945 .3560791 .34899903 .39312745 .30999757 .43223573 .2599945 .4482422 .21199036 .4482422 .12998963 .4482422 .06098938 .40115357 .06098938 .335083 .06098938 .30508424 .08099365 .28808595 .10699463 .28808595 .1349945 .28808595 .15299988 .30807496 .15299988 .33407594 .15299988 .3460846 .147995 .37908937 .101989749 .38008119 .1289978 .41519166 .17799378 .426239 .20999146 .426239 .25898744 .426239 .31599427 .38710023 .31599427 .29808045V.26107789C.2649994 .25808717 .19499207 .25508119 .13198853 .22509766 .056991579 .19110108 .03199768 .13911438 .03199768 .09512329 .03199768 .014251709 .1289978-.0107421879 .19198609-.0107421879 .2579956-.0107421879 .3039856 .029251099 .32299806 .07624817 .32699586 .036132814 .35398866-.005859375 .40098573-.005859375 .42199708-.005859375 .48298646 .008132935 .48298646 .08912659M.31599427 .14013672C.31599427 .04525757 .24398804 .011245728 .19898987 .011245728 .1499939 .011245728 .10899353 .04624939 .10899353 .09625244 .10899353 .15124512 .15098572 .23425293 .31599427 .24024964V.14013672Z"/>
<path id="font_8_60" d="M.3639984 .38137818C.3639984 .41337586 .33299256 .4423828 .2899933 .4423828 .21699524 .4423828 .18099976 .37538148 .16699219 .3323822V.4423828L.027999878 .43066407V.3996582C.09799194 .3996582 .10598755 .39266969 .10598755 .34370423V.07595825C.10598755 .0309906 .09498596 .0309906 .027999878 .0309906V0L.14199829 .0029907227C.18199158 .0029907227 .22898865 .0029907227 .2689972 0V.0309906H.24798584C.17399597 .0309906 .17199707 .04197693 .17199707 .07795715V.23181153C.17199707 .33137513 .21398926 .42037965 .2899933 .42037965 .29699708 .42037965 .29899598 .42037965 .30099488 .41937257 .2979889 .41838075 .27799989 .40637208 .27799989 .3803711 .27799989 .35237123 .29899598 .33737184 .32099916 .33737184 .33898927 .33737184 .3639984 .3493805 .3639984 .38137818Z"/>
<path id="font_8_56" d="M.5349884 0V.0309906C.48298646 .0309906 .45799256 .0309906 .45700074 .061019899V.25221253C.45700074 .3383026 .45700074 .36932374 .42599488 .405365 .4119873 .42237855 .3789978 .4423828 .32099916 .4423828 .24798584 .4423828 .20098877 .39935304 .17298889 .33729554V.4423828L.03199768 .43066407V.3996582C.101989749 .3996582 .10998535 .39266969 .10998535 .34370423V.07595825C.10998535 .0309906 .09899902 .0309906 .03199768 .0309906V0L.14498902 .0029907227 .25698854 0V.0309906C.18998719 .0309906 .1789856 .0309906 .1789856 .07595825V.25978089C.1789856 .36431886 .25 .42037965 .31399537 .42037965 .3769989 .42037965 .3880005 .36631776 .3880005 .30926515V.076034549C.3880005 .0309906 .3769989 .0309906 .30999757 .0309906V0L.4229889 .0029907227 .5349884 0Z"/>
<path id="font_8_57" d="M.47099305 .21424866C.47099305 .34223939 .37098695 .4482422 .25 .4482422 .125 .4482422 .027999878 .3392334 .027999878 .21424866 .027999878 .085250858 .13198853-.0107421879 .24899292-.0107421879 .36999513-.0107421879 .47099305 .087249759 .47099305 .21424866M.3880005 .22224427C.3880005 .18624878 .3880005 .13224793 .3659973 .08824158 .34399415 .04324341 .2999878 .014251709 .25 .014251709 .20698548 .014251709 .16299439 .035247804 .13598633 .08125305 .11099243 .12524414 .11099243 .18624878 .11099243 .22224427 .11099243 .26124574 .11099243 .31523133 .1349945 .35923768 .1619873 .40522767 .20899964 .426239 .24899292 .426239 .29299928 .426239 .33599855 .40423585 .3619995 .36123658 .3880005 .3182373 .3880005 .26023866 .3880005 .22224427Z"/>
<path id="font_8_55" d="M.8129883 0V.0309906C.7609863 .0309906 .73599246 .0309906 .7350006 .061019899V.25221253C.7350006 .3383026 .7350006 .36932374 .70399478 .405365 .6899872 .42237855 .6569977 .4423828 .598999 .4423828 .5149994 .4423828 .47099305 .38233949 .45399476 .34429933 .43998719 .43138124 .3659973 .4423828 .32099916 .4423828 .24798584 .4423828 .20098877 .39935304 .17298889 .33729554V.4423828L.03199768 .43066407V.3996582C.101989749 .3996582 .10998535 .39266969 .10998535 .34370423V.07595825C.10998535 .0309906 .09899902 .0309906 .03199768 .0309906V0L.14498902 .0029907227 .25698854 0V.0309906C.18998719 .0309906 .1789856 .0309906 .1789856 .07595825V.25978089C.1789856 .36431886 .25 .42037965 .31399537 .42037965 .3769989 .42037965 .3880005 .36631776 .3880005 .30926515V.076034549C.3880005 .0309906 .3769989 .0309906 .30999757 .0309906V0L.4229889 .0029907227 .5349884 0V.0309906C.46798707 .0309906 .45700074 .0309906 .45700074 .076034549V.2602234C.45700074 .36431886 .5279999 .42037965 .59199526 .42037965 .6549988 .42037965 .66600039 .36631776 .66600039 .30926515V.076034549C.66600039 .0309906 .6549988 .0309906 .58799746 .0309906V0L.70098879 .0029907227 .8129883 0Z"/>
<path id="font_8_54" d="M.25498963 0V.0309906C.18798828 .0309906 .1769867 .0309906 .1769867 .07601929V.69433596L.032989503 .6826172V.6516113C.102996829 .6516113 .11099243 .64460757 .11099243 .5956421V.07595825C.11099243 .0309906 .099990848 .0309906 .032989503 .0309906V0L.14399719 .0029907227 .25498963 0Z"/>
<path id="font_8_71" d="M.24699402 0V.0309906C.18099976 .0309906 .1769867 .035995485 .1769867 .075042728V.4423828L.036987306 .43066407V.3996582C.101989749 .3996582 .11099243 .3936615 .11099243 .3447113V.07595825C.11099243 .0309906 .099990848 .0309906 .032989503 .0309906V0L.14299011 .0029907227C.17799378 .0029907227 .21299744 .0009918213 .24699402 0M.2630005 .6621399C.2630005 .68019106 .24499512 .6982422 .22698975 .6982422 .21199036 .6982422 .20098877 .6872101 .19699097 .6811981L.07699585 .5278015 .09399414 .5097656 .24598694 .6320648C.25498963 .63908389 .2630005 .65011599 .2630005 .6621399Z"/>
<path id="font_8_61" d="M.3600006 .12823487C.3600006 .18122864 .32998658 .21122742 .31799317 .22323609 .2849884 .25523377 .24598694 .26322938 .20399475 .27124024 .147995 .28224183 .08099365 .29522706 .08099365 .35324098 .08099365 .38822938 .10699463 .42922975 .19299317 .42922975 .30299378 .42922975 .30799867 .3392334 .30999757 .30822755 .31098939 .2992401 .32199098 .2992401 .32199098 .2992401 .33499146 .2992401 .33499146 .30422975 .33499146 .32322694V.4242401C.33499146 .4412384 .33499146 .4482422 .32398988 .4482422 .31900025 .4482422 .31698609 .4482422 .3039856 .43623353 .30099488 .43223573 .29100038 .42323304 .2869873 .42022706 .24899292 .4482422 .20799256 .4482422 .19299317 .4482422 .070999149 .4482422 .032989503 .38124085 .032989503 .3252411 .032989503 .29023744 .04899597 .26223756 .07598877 .24023438 .10798645 .2142334 .13598633 .2082367 .20799256 .19422913 .22999573 .19021607 .31199647 .17422486 .31199647 .10221863 .31199647 .051223756 .2769928 .011245728 .19898987 .011245728 .114990238 .011245728 .07899475 .068222049 .05999756 .1532135 .056991579 .16621399 .055999757 .17021179 .04598999 .17021179 .032989503 .17021179 .032989503 .16322327 .032989503 .1452179V.013214111C.032989503-.003753662 .032989503-.0107421879 .04399109-.0107421879 .04899597-.0107421879 .049987794-.009750366 .068984989 .009246826 .070999149 .011245728 .070999149 .013214111 .08898926 .032226564 .1329956-.009750366 .17799378-.0107421879 .19898987-.0107421879 .31399537-.0107421879 .3600006 .05621338 .3600006 .1282196V.12823487Z"/>
<path id="font_4_10" d="M.2899933 .35191346C.37199403 .37893678 .42999269 .4490509 .42999269 .52809146 .42999269 .6100464 .34199525 .6660156 .24598694 .6660156 .14498902 .6660156 .068984989 .60606387 .068984989 .53009036 .068984989 .49710084 .09098816 .47808839 .11999512 .47808839 .15098572 .47808839 .17098999 .50009158 .17098999 .5290985 .17098999 .57910159 .12399292 .57910159 .10899353 .57910159 .13999939 .62802127 .20599365 .64100649 .24198914 .64100649 .2829895 .64100649 .33799745 .6190338 .33799745 .5290985 .33799745 .51708987 .33599855 .45906068 .30999757 .4149933 .27999879 .36691285 .24598694 .36390687 .22099304 .36291505 .21299744 .36190797 .18899536 .35990907 .18199158 .35990907 .17399597 .35890199 .16699219 .35791017 .16699219 .3479004 .16699219 .33691407 .17399597 .33691407 .19099427 .33691407H.23498535C.31698609 .33691407 .35398866 .2686615 .35398866 .17037964 .35398866 .034469606 .2849884 .0055389406 .24099732 .0055389406 .19799805 .0055389406 .12298584 .022491456 .08799744 .08137512 .12298584 .07637024 .1539917 .09837341 .1539917 .1363678 .1539917 .17237854 .1269989 .19238281 .09799194 .19238281 .07398987 .19238281 .041992189 .17837525 .041992189 .1343689 .041992189 .043441774 .1349945-.022460938 .24398804-.022460938 .3659973-.022460938 .45700074 .06838989 .45700074 .17037964 .45700074 .252594 .3939972 .33088685 .2899933 .35191346Z"/>
<path id="font_8_45" d="M.4149933 .119140628C.4149933 .12911988 .40499879 .12911988 .4019928 .12911988 .3929901 .12911988 .3909912 .12512207 .3889923 .119140628 .3600006 .026229859 .29499818 .014251709 .2579956 .014251709 .20498657 .014251709 .116989139 .0572052 .116989139 .21801758 .116989139 .38093568 .19898987 .42323304 .2519989 .42323304 .26098634 .42323304 .32398988 .42222596 .35899354 .38594056 .31799317 .38293458 .31199647 .3529358 .31199647 .3399353 .31199647 .31393434 .32998658 .2939453 .35798646 .2939453 .38398744 .2939453 .4039917 .3109436 .4039917 .34094239 .4039917 .40911866 .32798768 .4482422 .25099183 .4482422 .12599182 .4482422 .033996583 .3399353 .033996583 .21601868 .033996583 .08816528 .1329956-.0107421879 .24899292-.0107421879 .3829956-.0107421879 .4149933 .10914612 .4149933 .119140628Z"/>
<path id="font_8_62" d="M.33198548 .12385559V.18066406H.30699159V.12585449C.30699159 .052108766 .2769928 .014251709 .23999024 .014251709 .17298889 .014251709 .17298889 .10491943 .17298889 .12187195V.3996582H.31599427V.43066407H.17298889V.6142578H.147995C.14698792 .5324249 .116989139 .42565919 .018997193 .42166139V.3996582H.10398865V.12408447C.10398865 .0012512207 .19699097-.0107421879 .23298645-.0107421879 .3039856-.0107421879 .33198548 .060180665 .33198548 .12408447V.12385559Z"/>
<path id="font_8_47" d="M.4149933 .11933899C.4149933 .12934876 .40699769 .13134766 .4019928 .13134766 .3929901 .13134766 .3909912 .12535095 .3889923 .11734009 .35398866 .014251709 .2639923 .014251709 .2539978 .014251709 .20399475 .014251709 .1639862 .044281007 .14099121 .08131409 .11099243 .12934876 .11099243 .19540406 .11099243 .23144531H.3899994C.4119873 .23144531 .4149933 .23144531 .4149933 .2524414 .4149933 .35131837 .36099244 .4482422 .23599243 .4482422 .11999512 .4482422 .027999878 .34532167 .027999878 .22042847 .027999878 .08631897 .1329956-.0107421879 .24798584-.0107421879 .36999513-.0107421879 .4149933 .10032654 .4149933 .11933899M.34899903 .2524414H.11199951C.117996219 .40126039 .20199585 .426239 .23599243 .426239 .33898927 .426239 .34899903 .2913971 .34899903 .2524414Z"/>
<path id="font_8_72" d="M.5349884 0V.0309906C.48298646 .0309906 .45799256 .0309906 .45700074 .061019899V.25221253C.45700074 .3383026 .45700074 .36932374 .42599488 .405365 .4119873 .42237855 .3789978 .4423828 .32099916 .4423828 .24798584 .4423828 .20098877 .39935304 .17298889 .33729554V.4423828L.03199768 .43066407V.3996582C.101989749 .3996582 .10998535 .39266969 .10998535 .34370423V.07595825C.10998535 .0309906 .09899902 .0309906 .03199768 .0309906V0L.14498902 .0029907227 .25698854 0V.0309906C.18998719 .0309906 .1789856 .0309906 .1789856 .07595825V.25978089C.1789856 .36431886 .25 .42037965 .31399537 .42037965 .3769989 .42037965 .3880005 .36631776 .3880005 .30926515V.076034549C.3880005 .0309906 .3769989 .0309906 .30999757 .0309906V0L.4229889 .0029907227 .5349884 0M.44499208 .6354675 .42900086 .6504669C.42900086 .6504669 .3909912 .60261538 .34700013 .60261538 .32398988 .60261538 .29899598 .61746218 .28199769 .62745669 .25498963 .64346316 .23699951 .6504669 .21998596 .6504669 .18199158 .6504669 .16299439 .62846377 .11199951 .5726166L.12799073 .5576172C.12799073 .5576172 .1659851 .60546877 .20999146 .60546877 .23298645 .60546877 .2579956 .5906067 .2749939 .5806122 .3019867 .5646057 .31999208 .5576172 .33699037 .5576172 .375 .5576172 .3939972 .5796051 .44499208 .6354675Z"/>
<path id="font_3_10" d="M.19198609 .052993776C.19198609 .08198547 .16799927 .10598755 .13899231 .10598755 .10998535 .10598755 .085998538 .08198547 .085998538 .052993776 .085998538 .023986817 .10998535 0 .13899231 0 .16799927 0 .19198609 .023986817 .19198609 .052993776Z"/>
<path id="font_8_4" d="M.33099366-.2400055C.33099366-.23701477 .33099366-.23500061 .31399537-.21800232 .18899536-.0920105 .15699768 .09700012 .15699768 .25 .15699768 .42399598 .19499207 .59799197 .31799317 .72299197 .33099366 .7350006 .33099366 .7369995 .33099366 .73999026 .33099366 .746994 .32699586 .75 .32099916 .75 .31098939 .75 .22099304 .6819916 .1619873 .5549927 .11099243 .44499208 .09899902 .33399964 .09899902 .25 .09899902 .17199707 .10998535 .050994874 .16499329-.06201172 .22499085-.18501282 .31098939-.25 .32099916-.25 .32699586-.25 .33099366-.24700928 .33099366-.2400055Z"/>
<path id="font_8_15" d="M.44898988 .20091248C.44898988 .31991578 .36698915 .41992188 .25898744 .41992188 .21099854 .41992188 .16799927 .4039154 .13198853 .36891175V.5641022C.1519928 .55778506 .18499756 .55078127 .21699524 .55078127 .33999635 .55078127 .4099884 .6418457 .4099884 .65493777 .4099884 .6609802 .40699769 .6660156 .3999939 .6660156 .3999939 .66607668 .39698792 .66607668 .3919983 .66308596 .37199403 .65408328 .32299806 .63378909 .2559967 .63378909 .21598816 .63409426 .16999817 .641098 .12298584 .6621094 .114990238 .6651001 .11099243 .6651001 .11099243 .6651001 .100997928 .66508486 .100997928 .657074 .100997928 .64108279V.3447113C.100997928 .3266449 .100997928 .31861878 .114990238 .31861878 .12199402 .31861878 .12399292 .32164 .12799073 .32765199 .13899231 .34371949 .17599488 .3979187 .25698854 .3979187 .30899049 .3979187 .33399964 .3517456 .34199525 .3336792 .35798646 .2965393 .3600006 .2574005 .3600006 .20721436 .3600006 .17218018 .3600006 .112197879 .33599855 .07032776 .31199647 .031448366 .2749939 .0055389406 .22898865 .0055389406 .1559906 .0055389406 .09899902 .05836487 .08198547 .1171875 .084991458 .11685181 .08799744 .115859989 .09899902 .115859989 .13198853 .115859989 .14898682 .14085388 .14898682 .16485596 .14898682 .18885803 .13198853 .21386719 .09899902 .21386719 .084991458 .21386719 .049987794 .2068634 .049987794 .16085816 .049987794 .07432556 .11898804-.022460938 .23098755-.022460938 .34700013-.022460938 .44898988 .07331848 .44898988 .20019531V.20091248Z"/>
<path id="font_8_8" d="M.19198609 .052993776C.19198609 .08198547 .16799927 .10598755 .13899231 .10598755 .10998535 .10598755 .085998538 .08198547 .085998538 .052993776 .085998538 .023986817 .10998535 0 .13899231 0 .16799927 0 .19198609 .023986817 .19198609 .052993776Z"/>
<path id="font_8_5" d="M.2889862 .25C.2889862 .32798768 .27799989 .44898988 .22299195 .56199648 .16299439 .68499758 .07699585 .75 .066986087 .75 .06098938 .75 .056991579 .74598696 .056991579 .73999026 .056991579 .7369995 .056991579 .7350006 .07598877 .71699526 .17399597 .6179962 .23098755 .45899964 .23098755 .25 .23098755 .07899475 .19400025-.09700012 .069992069-.2230072 .056991579-.23500061 .056991579-.23701477 .056991579-.2400055 .056991579-.2460022 .06098938-.25 .066986087-.25 .07699585-.25 .16699219-.18200684 .22599793-.055007936 .2769928 .054992677 .2889862 .16600037 .2889862 .25Z"/>
</defs>
<g clip-path="url(#clip_1)">
<g clip-path="url(#clip_2)">
<use data-text="&#x03bd;" xlink:href="#font_3_6" transform="matrix(9.96264,0,0,-9.96264,164.97306,28.005417)"/>
<use data-text="=" xlink:href="#font_4_18" transform="matrix(9.96264,0,0,-9.96264,173.29596,28.005417)"/>
<use data-text="&#xfffd;" xlink:href="#font_5_3" transform="matrix(9.96264,0,0,-9.96264,183.81204,10.969147)"/>
<use data-text="n" xlink:href="#font_3_36" transform="matrix(9.96264,0,0,-9.96264,191.83753,21.210877)"/>
<use data-text="e" xlink:href="#font_6_16" transform="matrix(6.973848,0,0,-6.973848,197.81745,22.705258)"/>
<use data-text="f" xlink:href="#font_6_17" transform="matrix(6.973848,0,0,-6.973848,201.3532,22.705258)"/>
<use data-text="&#x2212;" xlink:href="#font_7_1" transform="matrix(9.96264,0,0,-9.96264,207.09862,21.210877)"/>
<use data-text="2" xlink:href="#font_4_9" transform="matrix(9.96264,0,0,-9.96264,217.06124,21.210877)"/>
<use data-text="," xlink:href="#font_3_11" transform="matrix(9.96264,0,0,-9.96264,222.04257,21.210877)"/>
<use data-text="p" xlink:href="#font_8_58" transform="matrix(9.96264,0,0,-9.96264,234.77263,21.210877)"/>
<use data-text="a" xlink:href="#font_8_43" transform="matrix(9.96264,0,0,-9.96264,240.31186,21.210877)"/>
<use data-text="r" xlink:href="#font_8_60" transform="matrix(9.96264,0,0,-9.96264,245.29319,21.210877)"/>
<use data-text="a" xlink:href="#font_8_43" transform="matrix(9.96264,0,0,-9.96264,249.19853,21.210877)"/>
<use data-text="a" xlink:href="#font_8_43" transform="matrix(9.96264,0,0,-9.96264,257.49745,21.210877)"/>
<use data-text="n" xlink:href="#font_8_56" transform="matrix(9.96264,0,0,-9.96264,262.47877,21.210877)"/>
<use data-text="o" xlink:href="#font_8_57" transform="matrix(9.96264,0,0,-9.96264,268.01799,21.210877)"/>
<use data-text="m" xlink:href="#font_8_55" transform="matrix(9.96264,0,0,-9.96264,272.9993,21.210877)"/>
<use data-text="a" xlink:href="#font_8_43" transform="matrix(9.96264,0,0,-9.96264,281.29817,21.210877)"/>
<use data-text="l" xlink:href="#font_8_54" transform="matrix(9.96264,0,0,-9.96264,286.27949,21.210877)"/>
<use data-text="&#x00ed;" xlink:href="#font_8_71" transform="matrix(9.96264,0,0,-9.96264,289.0491,21.210877)"/>
<use data-text="a" xlink:href="#font_8_43" transform="matrix(9.96264,0,0,-9.96264,291.81874,21.210877)"/>
<use data-text="s" xlink:href="#font_8_61" transform="matrix(9.96264,0,0,-9.96264,296.80006,21.210877)"/>
<use data-text="," xlink:href="#font_3_11" transform="matrix(9.96264,0,0,-9.96264,300.7193,21.210877)"/>
<use data-text="n" xlink:href="#font_3_36" transform="matrix(9.96264,0,0,-9.96264,191.83754,35.557027)"/>
<use data-text="e" xlink:href="#font_6_16" transform="matrix(6.973848,0,0,-6.973848,197.81748,37.051408)"/>
<use data-text="f" xlink:href="#font_6_17" transform="matrix(6.973848,0,0,-6.973848,201.35321,37.051408)"/>
<use data-text="&#x2212;" xlink:href="#font_7_1" transform="matrix(9.96264,0,0,-9.96264,207.09864,35.557027)"/>
<use data-text="3" xlink:href="#font_4_10" transform="matrix(9.96264,0,0,-9.96264,217.06125,35.557027)"/>
<use data-text="," xlink:href="#font_3_11" transform="matrix(9.96264,0,0,-9.96264,222.04259,35.557027)"/>
<use data-text="a" xlink:href="#font_8_43" transform="matrix(9.96264,0,0,-9.96264,234.77265,35.557027)"/>
<use data-text="l" xlink:href="#font_8_54" transform="matrix(9.96264,0,0,-9.96264,239.75397,35.557027)"/>
<use data-text="c" xlink:href="#font_8_45" transform="matrix(9.96264,0,0,-9.96264,245.84114,35.557027)"/>
<use data-text="o" xlink:href="#font_8_57" transform="matrix(9.96264,0,0,-9.96264,250.26456,35.557027)"/>
<use data-text="n" xlink:href="#font_8_56" transform="matrix(9.96264,0,0,-9.96264,255.24588,35.557027)"/>
<use data-text="t" xlink:href="#font_8_62" transform="matrix(9.96264,0,0,-9.96264,260.5161,35.557027)"/>
<use data-text="r" xlink:href="#font_8_60" transform="matrix(9.96264,0,0,-9.96264,264.3916,35.557027)"/>
<use data-text="o" xlink:href="#font_8_57" transform="matrix(9.96264,0,0,-9.96264,268.29695,35.557027)"/>
<use data-text="l" xlink:href="#font_8_54" transform="matrix(9.96264,0,0,-9.96264,273.27827,35.557027)"/>
<use data-text="a" xlink:href="#font_8_43" transform="matrix(9.96264,0,0,-9.96264,276.04786,35.557027)"/>
<use data-text="r" xlink:href="#font_8_60" transform="matrix(9.96264,0,0,-9.96264,281.02919,35.557027)"/>
<use data-text="e" xlink:href="#font_8_47" transform="matrix(9.96264,0,0,-9.96264,288.24214,35.557027)"/>
<use data-text="l" xlink:href="#font_8_54" transform="matrix(9.96264,0,0,-9.96264,292.66557,35.557027)"/>
<use data-text="a" xlink:href="#font_8_43" transform="matrix(9.96264,0,0,-9.96264,298.7627,35.557027)"/>
<use data-text="&#x00f1;" xlink:href="#font_8_72" transform="matrix(9.96264,0,0,-9.96264,303.74403,35.557027)"/>
<use data-text="o" xlink:href="#font_8_57" transform="matrix(9.96264,0,0,-9.96264,309.28324,35.557027)"/>
<use data-text="." xlink:href="#font_3_10" transform="matrix(9.96264,0,0,-9.96264,314.2524,35.557027)"/>
<use data-text="(" xlink:href="#font_8_4" transform="matrix(9.96264,0,0,-9.96264,461.71299,28.005417)"/>
<use data-text="5" xlink:href="#font_8_15" transform="matrix(9.96264,0,0,-9.96264,465.58845,28.005417)"/>
<use data-text="." xlink:href="#font_8_8" transform="matrix(9.96264,0,0,-9.96264,470.56977,28.005417)"/>
<use data-text="5" xlink:href="#font_8_15" transform="matrix(9.96264,0,0,-9.96264,473.3394,28.005417)"/>
<use data-text=")" xlink:href="#font_8_5" transform="matrix(9.96264,0,0,-9.96264,478.3207,28.005417)"/>
</g>
</g>
</svg>
